Coordinates
version=1
nRows=16
nColumns=22
inDegrees=yes

Units are S.I. units (second, meters, Newtons, ...)
If the header above contains a line with 'inDegrees', this indicates whether rotational values are in degrees (yes) or radians (no).

endheader
time	pelvis_tilt	pelvis_list	pelvis_rotation	pelvis_tx	pelvis_ty	pelvis_tz	hip_flexion_r	hip_adduction_r	hip_rotation_r	knee_angle_r	ankle_angle_r	subtalar_angle_r	hip_flexion_l	hip_adduction_l	hip_rotation_l	knee_angle_l	ankle_angle_l	subtalar_angle_l	lumbar_extension	lumbar_bending	lumbar_rotation
      0.01000000	     -2.11221347	     -7.53061882	      9.23493020	      0.12692281	      0.97819249	      0.96707237	      6.86743980	      5.35544143	    -11.96638597	    -16.30296441	      9.30823069	      3.32326199	      4.38620879	     -9.25772677	      9.63843830	     -8.79299213	      9.86942412	     -0.95217681	      2.55329409	      7.51176818	     -6.56821794
      0.02000000	     -2.11011834	     -7.49641033	      9.24328729	      0.12689527	      0.97818573	      0.96697588	      6.88392364	      5.30406388	    -12.00018199	    -16.34826091	      9.34278843	      3.35584197	      4.37985994	     -9.21487686	      9.63752782	     -8.79065870	      9.83176704	     -0.94458710	      2.53268562	      7.48603464	     -6.57962971
      0.03000000	     -2.11393874	     -7.48997536	      9.23380030	      0.12688614	      0.97816493	      0.96690639	      6.89923727	      5.28882538	    -11.99261939	    -16.37067104	      9.33976054	      3.36309972	      4.38310628	     -9.20241453	      9.63986910	     -8.79756515	      9.83856386	     -0.94423186	      2.52242961	      7.49342771	     -6.58318754
      0.04000000	     -2.11788417	     -7.48825635	      9.23787794	      0.12690246	      0.97814482	      0.96682560	      6.90347787	      5.28140740	    -11.99107899	    -16.37355037	      9.34044382	      3.36377133	      4.38603908	     -9.19556402	      9.63764649	     -8.79602752	      9.83993401	     -0.94410910	      2.51667362	      7.50317214	     -6.58172807
      0.05000000	     -2.15143764	     -7.44794359	      9.22160689	      0.12689055	      0.97808014	      0.96674205	      6.97219747	      5.21741108	    -11.99586130	    -16.45058308	      9.37809940	      3.38149387	      4.42911140	     -9.13817818	      9.60925058	     -8.83058441	      9.86089090	     -0.93943962	      2.53341089	      7.46744353	     -6.56376403
      0.06000000	     -2.15445042	     -7.44721882	      9.22457008	      0.12695449	      0.97806322	      0.96665505	      6.97281810	      5.21137076	    -11.99286497	    -16.45382886	      9.37848692	      3.38182896	      4.42874393	     -9.13251047	      9.60909949	     -8.83116964	      9.86050012	     -0.93901006	      2.53423289	      7.47937176	     -6.56477253
      0.07000000	     -2.16226518	     -7.43946566	      9.22177929	      0.12700455	      0.97803437	      0.96657398	      6.99231075	      5.19507413	    -11.98291201	    -16.48406156	      9.38864451	      3.38662347	      4.43612684	     -9.11792722	      9.61053069	     -8.84126346	      9.86586032	     -0.93728688	      2.53685213	      7.48419210	     -6.58227424
      0.08000000	     -2.16436218	     -7.43834836	      9.22740956	      0.12711215	      0.97801664	      0.96648674	      6.98891332	      5.18922394	    -11.98208361	    -16.48792214	      9.39016541	      3.38693765	      4.43375956	     -9.11260912	      9.60969833	     -8.84420844	      9.86645152	     -0.93718570	      2.54566542	      7.49279641	     -6.58004571
      0.09000000	     -2.16665399	     -7.43669428	      9.23103353	      0.12722828	      0.97799891	      0.96640324	      6.98521470	      5.18298379	    -11.98202768	    -16.49162178	      9.39271770	      3.38726071	      4.43068683	     -9.10670092	      9.60922386	     -8.84777935	      9.86780458	     -0.93721886	      2.55527266	      7.50164729	     -6.57900211
      0.10000000	     -2.18894410	     -7.41456669	      9.24467682	      0.12733029	      0.97794342	      0.96629511	      7.00844514	      5.14528976	    -12.00792420	    -16.51511257	      9.44814753	      3.40510735	      4.45615566	     -9.07216014	      9.61398429	     -8.86523288	      9.89323370	     -0.93883255	      2.58439488	      7.48355857	     -6.59087798
      0.11000000	     -2.19028379	     -7.41409654	      9.24725088	      0.12747439	      0.97792760	      0.96622302	      7.00195150	      5.14164181	    -12.00746163	    -16.51907811	      9.44822562	      3.40556864	      4.45031148	     -9.06856900	      9.61433287	     -8.86961635	      9.89292095	     -0.93869847	      2.59765679	      7.49152614	     -6.59002631
      0.12000000	     -2.19858202	     -7.41345701	      9.25506815	      0.12764825	      0.97790358	      0.96614027	      6.99049814	      5.13687472	    -12.02026072	    -16.50410482	      9.45935665	      3.40975513	      4.44523485	     -9.06420511	      9.61425435	     -8.86218944	      9.90154388	     -0.93893117	      2.62446905	      7.49803530	     -6.59085320
      0.13000000	     -2.19924940	     -7.41321611	      9.26156978	      0.12780449	      0.97788769	      0.96606960	      6.98236513	      5.13376303	    -12.01933171	    -16.50870913	      9.46025741	      3.41001555	      4.43849777	     -9.06149724	      9.61460439	     -8.86567816	      9.90239096	     -0.93883424	      2.63907433	      7.50549923	     -6.59017310
      0.14000000	     -2.19439567	     -7.42370937	      9.29151261	      0.12801393	      0.97787165	      0.96597725	      6.94756433	      5.14399734	    -12.04966492	    -16.47863401	      9.48656063	      3.41970917	      4.41635939	     -9.07227902	      9.64863930	     -8.84525056	      9.92678526	     -0.93468436	      2.66023691	      7.52306287	     -6.62162009
      0.15000000	     -2.19791825	     -7.42550665	      9.30226152	      0.12822131	      0.97785420	      0.96591982	      6.92778743	      5.14524029	    -12.06227589	    -16.46128390	      9.49100059	      3.42096087	      4.40367133	     -9.07412746	      9.64617323	     -8.83535108	      9.93352628	     -0.93378157	      2.68579868	      7.52770141	     -6.62236822
      0.16000000	     -2.18464979	     -7.44004951	      9.32589686	      0.12843983	      0.97785341	      0.96585172	      6.88449126	      5.16421068	    -12.07684981	    -16.43086863	      9.50101762	      3.42169215	      4.36938615	     -9.09309752	      9.67319635	     -8.81131283	      9.94472140	     -0.92719315	      2.69669170	      7.55030358	     -6.64801101
